<svg height="511pt" viewBox="-31 1 511 511.99873" width="511pt" xmlns="http://www.w3.org/2000/svg"><path d="m401.390625 255.710938c11.097656-10.261719 17.746094-24.878907 17.746094-40.4375v-4.179688c0-15.398438-6.503907-30.019531-17.664063-40.359375 7.558594-12.8125 13.027344-26.804687 16.148438-41.523437 5.414062-25.542969 3.5625-51.984376-5.351563-76.460938-1.441406-3.949219-5.804687-5.988281-9.757812-4.546875-3.953125 1.4375-5.988281 5.808594-4.546875 9.757813 16.375 44.957031 5.105468 95.859374-28.714844 129.679687-39.320312 39.320313-100.457031 47.488281-148.664062 19.859375-2.675782-1.535156-6.015626-1.300781-8.453126.589844-16.476562 12.78125-36.214843 19.539062-57.074218 19.539062-51.410156 0-93.238282-41.828125-93.238282-93.238281s41.828126-93.238281 93.238282-93.238281c28.203125 0 54.585937 12.578125 72.386718 34.507812 1.515626 1.867188 3.808594 2.910156 6.230469 2.808594 2.40625-.101562 4.621094-1.332031 5.972657-3.320312 6.101562-8.949219 16.1875-14.292969 26.992187-14.292969 13.328125 0 25.191406 7.984375 30.222656 20.347656.964844 2.363281 3.042969 4.085937 5.542969 4.589844 2.5.503906 5.089844-.273438 6.890625-2.078125l65.175781-65.171875c4.320313 4.878906 8.242188 10.082031 11.71875 15.539062 2.257813 3.546875 6.960938 4.589844 10.507813 2.332031 3.546875-2.257812 4.589843-6.964843 2.332031-10.511718-5.417969-8.511719-11.816406-16.476563-19.011719-23.671875-2.972656-2.972657-7.792969-2.976563-10.765625 0l-63.570312 63.5625c-8.835938-12.507813-23.238282-20.167969-39.042969-20.167969-12.609375 0-24.554687 4.960938-33.410156 13.597656-20.402344-21.265625-48.417969-33.296875-78.171875-33.296875-59.808594 0-108.464844 48.65625-108.464844 108.464844 0 12.332031 2.074219 24.191406 5.882812 35.246094-11.902343 10.390625-18.875 25.484375-18.875 41.457031v4.175781c0 15.367188 6.480469 29.820313 17.332032 40.058594-28.503906 4.28125-50.433594 28.925781-50.433594 58.597656 0 32.679688 26.585938 59.265625 59.265625 59.265625 1.152344 0 2.300781-.039062 3.445313-.105468 3.921874 24.539062 13.320312 47.820312 27.757812 68.417968 1.480469 2.113282 3.84375 3.246094 6.238281 3.246094 1.511719 0 3.035157-.449219 4.363281-1.378906 3.445313-2.414063 4.277344-7.164063 1.863282-10.605469-17.71875-25.277344-27.085938-55.019531-27.085938-86.011719v-107.359375c0-9.386719.882813-18.691406 2.59375-27.816406 2.8125 2.777344 5.773438 5.402344 8.875 7.859375l9.910156 144.027344c.867188 12.652344 11.484376 22.566406 24.167969 22.566406 8.898438 0 17.0625-4.863281 21.300781-12.6875 3.542969-6.535156 10.359376-10.59375 17.789063-10.59375h65.148437c.078126 0 .15625.003906.238282.003906h65.375c3.652344 0 7.222656.984375 10.355468 2.859375 3.113282 1.847657 5.6875 4.527344 7.4375 7.742188 2.085938 3.828125 5.160157 7.03125 8.90625 9.265625 3.742188 2.226562 8.027344 3.40625 12.390626 3.40625 12.6875 0 23.304687-9.914063 24.171874-22.574219l10.308594-152.292969c2.445313-1.84375 4.847656-3.765625 7.1875-5.785156 2.578125 11.09375 3.894532 22.484375 3.894532 34.019531v107.359375c0 71.824219-51.109376 133.773438-121.53125 147.304688-9.332032 1.800781-18.921876 2.714844-28.5 2.714844-39.863282 0-77.394532-15.460938-105.679688-43.535157-2.984375-2.964843-7.804688-2.945312-10.765625.039063s-2.945313 7.804687.039063 10.765625c31.160156 30.925781 72.5 47.957031 116.40625 47.957031 10.542968 0 21.101562-1.007812 31.378906-2.988281 68.777344-13.21875 120.828125-68.359375 131.75-135.828125.300781.003906.605468.015625.90625.015625 32.679687 0 59.269531-26.589844 59.269531-59.269531 0-28.921876-20.835937-53.054688-48.28125-58.21875zm2.519531-44.617188v4.179688c0 10.988281-4.597656 21.3125-12.285156 28.703124v-4.582031c0-15.777343-2.226562-31.328125-6.601562-46.296875 2.757812-3.058594 5.378906-6.21875 7.839843-9.488281 7.007813 7.339844 11.046875 17.171875 11.046875 27.484375zm-355.082031 4.179688v-4.179688c0-9.863281 3.675781-19.265625 10.113281-26.488281 2.28125 4.347656 4.84375 8.527343 7.671875 12.503906-3.628906 13.726563-5.492187 27.929687-5.492187 42.285156v4.59375c-7.691406-7.394531-12.292969-17.722656-12.292969-28.714843zm10.9375 142.695312c-24.28125 0-44.039063-19.757812-44.039063-44.042969 0-24.277343 19.757813-44.027343 44.039063-44.027343.457031 0 .90625.027343 1.355469.039062v25.113281c-11.085938.046875-22.523438 4.589844-28.097656 17.390625-1.675782 3.855469.089843 8.339844 3.945312 10.019532.988281.429687 2.019531.632812 3.03125.632812 2.941406 0 5.738281-1.710938 6.984375-4.578125 2.910156-6.679687 9.046875-8.246094 14.136719-8.257813v36.496094c0 3.742188.132812 7.46875.378906 11.171875-.578125.019531-1.152344.042969-1.734375.042969zm280.054687 4.449219c-.324218 4.699219-4.269531 8.382812-8.984374 8.382812-1.625 0-3.21875-.4375-4.597657-1.257812-1.394531-.832031-2.546875-2.03125-3.328125-3.46875-3.058594-5.621094-7.566406-10.304688-13.011718-13.539063-5.472657-3.277344-11.746094-5.007812-18.152344-5.007812h-65.140625c-.082031 0-.160157-.003906-.238281-.003906h-65.382813c-13.023437 0-24.96875 7.117187-31.175781 18.570312-1.574219 2.90625-4.609375 4.710938-7.914063 4.710938-4.710937 0-8.65625-3.679688-8.980469-8.382813l-9.109374-132.464844c15.273437 8.226563 32.726562 12.898438 51.253906 12.898438 22.582031 0 44.03125-6.804688 62.347656-19.734375 20.28125 10.667968 42.386719 15.871094 64.375 15.867187 23.464844 0 46.785156-5.929687 67.574219-17.464843zm51.425782-4.46875c.25-3.703125.378906-7.4375.378906-11.195313v-36.4375c1.222656-.042968 2.570312-.015625 3.957031.152344 5.644531.691406 9.246094 3.25 11.332031 8.046875 1.246094 2.867187 4.046876 4.578125 6.984376 4.578125 1.015624 0 2.042968-.203125 3.03125-.632812 3.855468-1.675782 5.621093-6.160157 3.945312-10.015626-6.09375-14.023437-18.953125-17.597656-29.25-17.398437v-25.121094c23.71875.652344 42.820312 20.132813 42.820312 44 0 24.007813-19.304687 43.570313-43.199218 44.023438zm0 0"/><path d="m157.695312 279.128906c-4.207031 0-7.613281 3.410156-7.613281 7.613282v38.75c0 4.203124 3.40625 7.609374 7.613281 7.609374 4.203126 0 7.609376-3.40625 7.609376-7.609374v-38.75c0-4.203126-3.40625-7.613282-7.609376-7.613282zm0 0"/><path d="m295.042969 333.105469c4.203125 0 7.613281-3.410157 7.613281-7.613281v-38.75c0-4.203126-3.410156-7.613282-7.613281-7.613282-4.207031 0-7.613281 3.410156-7.613281 7.613282v38.75c0 4.203124 3.410156 7.613281 7.613281 7.613281zm0 0"/><path d="m279.117188 403.816406c2.972656-2.972656 2.972656-7.792968 0-10.765625-2.972657-2.972656-7.792969-2.972656-10.765626 0-11.214843 11.214844-26.125 17.390625-41.984374 17.390625-15.859376 0-30.765626-6.175781-41.980469-17.390625-2.972657-2.972656-7.792969-2.972656-10.765625 0-2.972656 2.972657-2.972656 7.792969 0 10.765625 14.089844 14.089844 32.824218 21.847656 52.75 21.847656 19.925781 0 38.65625-7.757812 52.746094-21.847656zm0 0"/></svg>