<svg height="511pt" viewBox="1 0 511.99909 511" width="511pt" xmlns="http://www.w3.org/2000/svg"><path d="m213.332031 102.898438c0-32.933594-26.796875-59.730469-59.730469-59.730469-32.933593 0-59.734374 26.796875-59.734374 59.730469 0 32.933593 26.800781 59.734374 59.734374 59.734374 32.933594 0 59.730469-26.800781 59.730469-59.734374zm-59.734375 7.027343c-4.707031 0-8.53125-3.828125-8.53125-8.535156s3.824219-8.535156 8.53125-8.535156c4.710938 0 8.535156 3.828125 8.535156 8.535156s-3.824218 8.535156-8.535156 8.535156zm26.59375-40.125c8.964844 7.21875 14.886719 17.894531 15.765625 30.050781l-19.632812-10.003906c-1.773438-3.472656-4.285157-6.476562-7.371094-8.8125zm-8.617187 49.78125c2.769531-2.734375 4.824219-6.132812 6.125-9.886719l15.757812 8.03125c-4.386719 11.75-13.757812 20.96875-25.582031 25.203126zm-17.976563-59.347656c3.664063 0 7.15625.605469 10.546875 1.476563l-14.476562 14.476562c-3.933594.613281-7.578125 2.066406-10.707031 4.257812l-7.148438-14.03125c6.398438-3.835937 13.796875-6.179687 21.785156-6.179687zm-42.664062 42.664063c0-9.125 2.9375-17.546876 7.835937-24.492188l9.640625 18.921875c-.214844 1.332031-.410156 2.671875-.410156 4.0625 0 2.605469.507812 5.070313 1.234375 7.441406l-17.398437 2.753907c-.585938-2.808594-.902344-5.710938-.902344-8.6875zm39.304687 42.328124c-12.839843-1.023437-24.070312-7.617187-31.199219-17.507812l22.960938-3.636719c3.367188 1.730469 7.117188 2.789063 11.136719 2.863281zm0 0"/><path d="m469.332031 426.867188v-116.410157c0-35.292969-28.707031-64-64-64-35.289062 0-64 28.710938-64 64v123.734375c0 32.933594-26.796875 59.734375-59.730469 59.734375h-238.933593c-14.117188 0-25.601563-11.484375-25.601563-25.601562 0-14.117188 11.484375-25.601563 25.601563-25.601563h185.714843c19.933594 0 36.148438-16.214844 36.148438-36.148437 0-5.585938-1.316406-11.175781-3.816406-16.167969l-11.183594-22.371094 3.96875-2.121094c4.15625-2.214843 5.734375-7.382812 3.507812-11.539062l-12.042968-22.578125 7.527344-4.015625c4.160156-2.222656 5.734374-7.390625 3.515624-11.550781l-56.214843-105.414063c-.011719-.019531-.035157-.035156-.046875-.054687-1.632813-3.058594-3.695313-5.765625-5.953125-8.289063 39.972656-5.710937 75.296875-19.851562 99.246093-40.226562l81.261719-16.253906 48.546875 24.273437c1.210938.601563 2.511719.898437 3.816406.898437 1.558594 0 3.117188-.421874 4.484376-1.273437 2.515624-1.558594 4.050781-4.300781 4.050781-7.257813v-119.46875c0-2.957031-1.535157-5.699218-4.050781-7.257812-2.515626-1.566406-5.648438-1.699219-8.300782-.375l-48.617187 24.3125-81.207031-16.242188c-31.613282-26.882812-82.992188-42.914062-138.648438-43.0625-.261719-.003906-.515625-.039062-.777344-.039062-.394531 0-.773437.054688-1.167968.058594-89.796876.367187-152.429688 42.339844-152.429688 102.367187 0 54.625 51.941406 94.207031 128.945312 101.1875-3.390624 4.203125-6.003906 9.039063-7.628906 14.359375-3.316406 10.902344-2.183594 22.445313 3.175782 32.5l56.21875 105.417969c1.066406 1.992187 2.882812 3.492187 5.046874 4.148437.808594.242188 1.652344.367188 2.484376.367188 1.390624 0 2.765624-.339844 4.015624-1l7.535157-4.015625 12.050781 22.582031c1.535156 2.875 4.484375 4.519532 7.53125 4.519532 1.359375 0 2.726562-.324219 4.007812-1.011719l11.082032-5.910157 10.984375 21.96875c1.320312 2.632813 2.019531 5.59375 2.019531 8.535157 0 10.523437-8.558594 19.082031-19.082031 19.082031h-185.71875c-23.527344 0-42.667969 19.144531-42.667969 42.667969 0 23.523437 19.140625 42.667969 42.667969 42.667969h238.933593c42.347657 0 76.796876-34.453126 76.796876-76.800782v-123.734375c0-25.875 21.058593-46.933593 46.933593-46.933593s46.933594 21.058593 46.933594 46.933593v116.410157c-14.683594 3.816406-25.601563 17.0625-25.601563 32.921874v25.601563c0 4.71875 3.816407 8.535156 8.535157 8.535156v17.066407h17.066406v-17.066407h17.066406v17.066407h17.066407v-17.066407c4.71875 0 8.535156-3.816406 8.535156-8.535156v-25.601563c0-15.859374-10.917969-29.105468-25.601563-32.921874zm-85.332031-352.824219 34.132812-17.070313v91.851563l-34.132812-17.066407zm-17.066406 1.738281v54.285156l-54.617188 10.917969c.105469-.160156.171875-.328125.277344-.488281 1.75-2.699219 3.308594-5.441406 4.671875-8.226563.316406-.652343.554687-1.316406.851563-1.96875.992187-2.191406 1.882812-4.398437 2.632812-6.632812.316406-.945313.59375-1.898438.871094-2.851563.59375-2.074218 1.078125-4.160156 1.46875-6.265625.164062-.898437.359375-1.789062.488281-2.695312.414063-2.957031.6875-5.933594.6875-8.933594 0-2.996094-.273437-5.96875-.6875-8.925781-.128906-.90625-.324219-1.804688-.492187-2.707032-.386719-2.097656-.871094-4.183593-1.464844-6.253906-.277344-.957031-.554688-1.910156-.875-2.859375-.75-2.230469-1.636719-4.4375-2.628906-6.625-.296876-.65625-.535157-1.320312-.855469-1.972656-1.359375-2.78125-2.921875-5.523437-4.667969-8.21875-.109375-.164063-.175781-.335937-.285156-.5zm-82.507813-17.117188c14.898438 13.410157 22.773438 28.710938 22.773438 44.261719 0 1.941407-.121094 3.882813-.367188 5.816407-1.464843 11.597656-7.304687 22.941406-17.160156 33.34375-1.636719 1.730468-3.386719 3.433593-5.246094 5.105468-.007812.007813-.011719.011719-.015625.015625-15.578125 14.09375-37.449218 24.929688-62.730468 31.972657 21.003906-18.765626 34.320312-45.964844 34.320312-76.28125 0-30.277344-13.28125-57.441407-34.238281-76.203126 25.246093 7.046876 47.09375 17.878907 62.664062 31.96875zm-267.359375 44.261719c0-33.84375 25.546875-60.757812 66.75-74.757812-20.015625 18.703125-32.617187 45.242187-32.617187 74.730469 0 29.195312 12.34375 55.507812 32.007812 74.179687-40.5-14.289063-66.140625-41.171875-66.140625-74.152344zm51.199219-.027343c0-46.6875 37.707031-84.691407 84.257813-85.277344.363281-.003906.710937-.03125 1.074218-.03125.570313 0 1.117188.058594 1.683594.0625 46.269531.90625 83.652344 38.765625 83.652344 85.246094 0 47.050781-38.285156 85.335937-85.335938 85.335937-47.046875 0-85.332031-38.285156-85.332031-85.335937zm69.382813 120.542968c1.992187-6.542968 6.410156-11.910156 12.441406-15.132812 3.828125-2.042969 7.941406-3.011719 12.011718-3.011719 6.320313 0 12.414063 2.492187 17.15625 6.792969l-42.351562 22.589844c-.5625-3.71875-.382812-7.535157.742188-11.238282zm49.703124 3.675782c1.542969 10.40625-3.371093 21.136718-13.167968 26.367187-9.804688 5.230469-21.453125 3.332031-29.230469-3.75zm11.929688 109.699218s-.003906.003906-.007812.003906l-7.515626 4.011719-36.183593-67.847656c2.191406.347656 4.402343.574219 6.632812.574219 6.769531 0 13.632813-1.617188 20.007813-5.015625 8.507812-4.539063 14.707031-11.628907 18.46875-19.773438l36.25 67.964844-7.523438 4.011719c-.003906.003906-.007812.003906-.011718.003906zm23.59375 26.101563-8.027344-15.058594 15.066406-8.035156 8.027344 15.058593zm254.992188 113.9375h-34.132813v-17.066407c0-9.40625 7.65625-17.066406 17.066406-17.066406 9.40625 0 17.066407 7.660156 17.066407 17.066406zm0 0"/><path d="m452.265625 92.855469h59.734375v17.070312h-59.734375zm0 0"/><path d="m446.230469 52.695312 34.132812-34.132812 12.066407 12.066406-34.132813 34.132813zm0 0"/><path d="m446.230469 150.09375 12.066406-12.066406 34.132813 34.132812-12.066407 12.066406zm0 0"/><path d="m153.597656 40.984375v-17.066406c-23.863281 0-46.039062 10.757812-60.847656 29.523437l13.398438 10.566406c11.550781-14.632812 28.84375-23.023437 47.449218-23.023437zm0 0"/><path d="m81.640625 72.625c-3.65625 9.148438-5.515625 18.832031-5.515625 28.765625h17.066406c0-7.75 1.449219-15.300781 4.300782-22.433594zm0 0"/><path d="m163.335938 284.988281 14.632812-8.785156 10.242188 17.066406-14.632813 8.785157zm0 0"/><path d="m180.402344 313.414062 14.632812-8.777343 8.535156 14.222656-14.636718 8.78125zm0 0"/></svg>